<svg width="13" height="12" viewBox="0 0 13 12" fill="none" xmlns="http://www.w3.org/2000/svg">
<path id="Shape" fill-rule="evenodd" clip-rule="evenodd" d="M5.95169 0.401516C5.9771 0.40153 6.00288 0.401543 6.02905 0.401543L8.97596 0.401543C9.42855 0.401536 9.80209 0.40153 10.1064 0.426391C10.4224 0.452213 10.7129 0.50763 10.9858 0.646669C11.409 0.862288 11.753 1.20634 11.9687 1.62952C12.1077 1.9024 12.1631 2.19291 12.1889 2.50895C12.2138 2.81323 12.2138 3.18677 12.2138 3.63935V6.58628C12.2138 6.61245 12.2138 6.63823 12.2138 6.66363C12.2141 7.11084 12.2142 7.44294 12.1372 7.73061C11.9292 8.50673 11.323 9.11294 10.5469 9.3209C10.3728 9.36753 10.1825 9.38588 9.96031 9.39305C9.95314 9.61527 9.93479 9.80557 9.88816 9.97961C9.6802 10.7557 9.07399 11.3619 8.29788 11.5699C8.0102 11.647 7.6781 11.6468 7.23089 11.6466C7.20549 11.6465 7.17971 11.6465 7.15354 11.6465H4.20661C3.75403 11.6465 3.38049 11.6465 3.07621 11.6217C2.76017 11.5959 2.46966 11.5404 2.19678 11.4014C1.7736 11.1858 1.42955 10.8417 1.21393 10.4186C1.07489 10.1457 1.01947 9.85515 0.993652 9.53912C0.968791 9.23483 0.968797 8.86129 0.968804 8.4087L0.968804 5.46178C0.968804 5.43562 0.96879 5.40984 0.968777 5.38443C0.968534 4.93723 0.968355 4.60513 1.04544 4.31745C1.2534 3.54134 1.85961 2.93513 2.63572 2.72717C2.80976 2.68054 3.00006 2.66218 3.22227 2.65501C3.22944 2.4328 3.2478 2.2425 3.29443 2.06846C3.50239 1.29235 4.1086 0.686134 4.88471 0.478176C5.17239 0.401094 5.50449 0.401274 5.95169 0.401516ZM4.34784 2.65054L6.72696 2.65054C7.17956 2.65053 7.55309 2.65053 7.85738 2.67539C8.17342 2.70121 8.46394 2.75663 8.73681 2.89567C9.15999 3.11128 9.50404 3.45534 9.71966 3.87851C9.8587 4.15139 9.91412 4.44191 9.93994 4.75795C9.9648 5.06224 9.9648 5.43578 9.96479 5.88838V8.26748C10.1096 8.26232 10.189 8.25261 10.2558 8.23471C10.6439 8.13073 10.947 7.82763 11.051 7.43957C11.0845 7.3146 11.0893 7.14536 11.0893 6.58628V3.66259C11.0893 3.18098 11.0888 2.85358 11.0682 2.60052C11.048 2.35402 11.0115 2.22796 10.9667 2.14003C10.8589 1.92844 10.6869 1.75641 10.4753 1.6486C10.3874 1.6038 10.2613 1.56729 10.0148 1.54715C9.76175 1.52648 9.43435 1.52604 8.95274 1.52604H6.02905C5.46997 1.52604 5.30073 1.53087 5.17575 1.56436C4.7877 1.66834 4.48459 1.97144 4.38061 2.3595C4.36272 2.42629 4.35301 2.50572 4.34784 2.65054ZM3.78005 3.77504C3.22098 3.77504 3.05173 3.77987 2.92676 3.81335C2.5387 3.91733 2.2356 4.22044 2.13162 4.60849C2.09813 4.73347 2.0933 4.90271 2.0933 5.46178V8.38548C2.0933 8.86709 2.09374 9.19448 2.11442 9.44755C2.13456 9.69405 2.17106 9.8201 2.21587 9.90804C2.32367 10.1196 2.4957 10.2917 2.70729 10.3995C2.79522 10.4443 2.92128 10.4808 3.16778 10.5009C3.42084 10.5216 3.74824 10.522 4.22985 10.522H7.15354C7.71262 10.522 7.88186 10.5172 8.00683 10.4837C8.39489 10.3797 8.698 10.0766 8.80197 9.68857C8.83546 9.56359 8.84029 9.39435 8.84029 8.83528V5.91158C8.84029 5.42997 8.83985 5.10258 8.81918 4.84952C8.79904 4.60302 8.76253 4.47696 8.71773 4.38902C8.60992 4.17744 8.43789 4.00541 8.2263 3.8976C8.13837 3.8528 8.01231 3.81629 7.76581 3.79615C7.51275 3.77547 7.18536 3.77504 6.70374 3.77504H3.78005Z" fill="#717A8C"/>
</svg>
