<svg width="20" height="20" viewBox="0 0 20 20" fill="none" xmlns="http://www.w3.org/2000/svg">
<g id="Shape">
<path d="M11.0424 14.4639C11.0424 15.0461 10.5704 15.5181 9.98815 15.5181C9.40592 15.5181 8.93393 15.0461 8.93393 14.4639C8.93393 13.8817 9.40592 13.4097 9.98815 13.4097C10.5704 13.4097 11.0424 13.8817 11.0424 14.4639Z" fill="#A2A8B4"/>
<path d="M9.98805 6.66271C9.28939 6.66271 8.72301 7.22907 8.72299 7.92772C8.72299 8.3935 8.3455 8.77109 7.87971 8.77109C7.41395 8.77109 7.03637 8.39353 7.03634 7.92777C7.03634 6.29753 8.35781 4.97596 9.98805 4.97596C11.6183 4.97596 12.9399 6.29753 12.9399 7.92777V7.97328C12.9399 9.02613 12.3875 10.0018 11.4846 10.5435L11.1451 10.7472C10.9505 10.8639 10.8314 11.0743 10.8314 11.3012C10.8314 11.767 10.4539 12.1446 9.98815 12.1446C9.52238 12.1446 9.1448 11.767 9.14478 11.3013C9.14478 10.4818 9.57463 9.72241 10.2773 9.30079L10.6168 9.09709C11.0116 8.86024 11.2531 8.43364 11.2531 7.97328V7.92777C11.2531 7.22909 10.6867 6.66271 9.98805 6.66271Z" fill="#A2A8B4"/>
<path fill-rule="evenodd" clip-rule="evenodd" d="M0.710938 10.0362C0.710938 4.9126 4.86444 0.759094 9.98805 0.759094C15.1117 0.759094 19.2652 4.9126 19.2652 10.0362C19.2652 15.1598 15.1117 19.3133 9.98805 19.3133C4.86444 19.3133 0.710938 15.1598 0.710938 10.0362ZM9.98805 2.44584C5.796 2.44584 2.39768 5.84416 2.39768 10.0362C2.39768 14.2282 5.796 17.6266 9.98805 17.6266C14.1801 17.6266 17.5784 14.2282 17.5784 10.0362C17.5784 5.84416 14.1801 2.44584 9.98805 2.44584Z" fill="#A2A8B4"/>
</g>
</svg>
