<svg width="17" height="18" viewBox="0 0 17 18" fill="none" xmlns="http://www.w3.org/2000/svg">
<path d="M5.34203 2.39343C3.18595 2.39343 1.4375 4.14188 1.4375 6.29796V12.5452C1.4375 14.7013 3.18595 16.4497 5.34203 16.4497H11.5893C13.7454 16.4497 15.4938 14.7013 15.4938 12.5452V6.29796C15.4938 4.14188 13.7454 2.39343 11.5893 2.39343H5.34203ZM13.1511 3.95524C13.5822 3.95524 13.932 4.30509 13.932 4.73615C13.932 5.16721 13.5822 5.51706 13.1511 5.51706C12.72 5.51706 12.3702 5.16721 12.3702 4.73615C12.3702 4.30509 12.72 3.95524 13.1511 3.95524ZM8.46566 5.51706C10.6217 5.51706 12.3702 7.26551 12.3702 9.42159C12.3702 11.5777 10.6217 13.3261 8.46566 13.3261C6.30957 13.3261 4.56112 11.5777 4.56112 9.42159C4.56112 7.26551 6.30957 5.51706 8.46566 5.51706ZM8.46566 7.07887C7.84433 7.07887 7.24845 7.32569 6.8091 7.76504C6.36976 8.20438 6.12294 8.80026 6.12294 9.42159C6.12294 10.0429 6.36976 10.6388 6.8091 11.0781C7.24845 11.5175 7.84433 11.7643 8.46566 11.7643C9.08698 11.7643 9.68286 11.5175 10.1222 11.0781C10.5616 10.6388 10.8084 10.0429 10.8084 9.42159C10.8084 8.80026 10.5616 8.20438 10.1222 7.76504C9.68286 7.32569 9.08698 7.07887 8.46566 7.07887Z" fill="#A2A8B4"/>
</svg>
