<svg width="18" height="18" viewBox="0 0 18 18" fill="none" xmlns="http://www.w3.org/2000/svg">
<path fill-rule="evenodd" clip-rule="evenodd" d="M13.5522 5.07312C14.307 5.8279 14.307 7.05164 13.5522 7.80642L11.3159 10.0427C10.6194 10.7392 9.52233 10.7933 8.76483 10.2038C8.38193 9.90579 7.82996 9.97463 7.53197 10.3575C7.23399 10.7404 7.30282 11.2924 7.68573 11.5904C9.13395 12.7174 11.2273 12.6161 12.5583 11.2852L14.7946 9.04882C16.2356 7.60788 16.2356 5.27166 14.7946 3.83072C13.3537 2.38977 11.0175 2.38978 9.57651 3.83072L9.32803 4.0792C8.98495 4.42228 8.98495 4.97852 9.32803 5.3216C9.67111 5.66468 10.2274 5.66468 10.5704 5.3216L10.8189 5.07312C11.5737 4.31834 12.7974 4.31834 13.5522 5.07312ZM4.8554 13.77C4.10062 13.0152 4.10062 11.7915 4.8554 11.0367L7.09173 8.80037C7.78818 8.10392 8.88528 8.04983 9.64278 8.63934C10.0257 8.93733 10.5776 8.86849 10.8756 8.48559C11.1736 8.10269 11.1048 7.55072 10.7219 7.25274C9.27366 6.12569 7.18027 6.22702 5.84932 7.55797L3.61299 9.7943C2.17205 11.2352 2.17205 13.5715 3.61299 15.0124C5.05393 16.4533 7.39016 16.4533 8.8311 15.0124L9.07958 14.7639C9.42266 14.4208 9.42266 13.8646 9.07958 13.5215C8.7365 13.1784 8.18025 13.1784 7.83717 13.5215L7.58869 13.77C6.83391 14.5248 5.61018 14.5248 4.8554 13.77Z" fill="#A2A8B4"/>
</svg>
