<svg width="32" height="19" viewBox="0 0 32 19" fill="none" xmlns="http://www.w3.org/2000/svg">
<path d="M22.6557 4.51138L24.3482 11.5773C24.5337 12.3518 23.9466 13.0961 23.1503 13.0961H7.88556C6.43145 13.0961 5.13208 12.1881 4.63221 10.8226L4.49357 10.4438C4.42001 10.2429 4.56877 10.03 4.78276 10.03H14.7518C14.8698 10.03 14.9655 9.93432 14.9655 9.81626C14.9655 8.93085 14.2478 8.21309 13.3624 8.21309H6.09803C4.64392 8.21309 3.34455 7.30505 2.84468 5.93956L2.7199 5.59868C2.64633 5.39773 2.79509 5.18486 3.00908 5.18486H12.4806C12.5987 5.18486 12.6944 5.08916 12.6944 4.97111C12.6944 4.0857 11.9766 3.36793 11.0912 3.36793H4.32435C2.87025 3.36793 1.57088 2.4599 1.07101 1.09441L0.96008 0.79138C0.886519 0.590432 1.03528 0.377563 1.24927 0.377563H17.4147C19.9075 0.377563 22.075 2.08717 22.6557 4.51138Z" fill="url(#paint0_linear_8758_37015)"/>
<path d="M28.6475 6.61446L31.0212 16.8086C31.201 17.581 30.6146 18.3197 29.8214 18.3197H13.9002C12.3923 18.3197 11.0575 17.3443 10.5994 15.9076L10.4381 15.4017C10.3431 15.1037 10.5655 14.7994 10.8782 14.7994H25.4165C26.2141 14.7994 26.8014 14.053 26.6137 13.2777L24.4902 4.50629C24.4198 4.21559 24.64 3.93567 24.9391 3.93567H25.2733C26.884 3.93567 28.2822 5.04573 28.6475 6.61446Z" fill="url(#paint1_linear_8758_37015)"/>
<defs>
<linearGradient id="paint0_linear_8758_37015" x1="12.6565" y1="0.377563" x2="12.6565" y2="13.0961" gradientUnits="userSpaceOnUse">
<stop stop-color="#FFC803"/>
<stop offset="1" stop-color="#FFA903"/>
</linearGradient>
<linearGradient id="paint1_linear_8758_37015" x1="20.7058" y1="3.93567" x2="20.7058" y2="18.3197" gradientUnits="userSpaceOnUse">
<stop stop-color="#FF7421"/>
<stop offset="1" stop-color="#EC5901"/>
</linearGradient>
</defs>
</svg>
