<svg width="18" height="18" viewBox="0 0 18 18" fill="none" xmlns="http://www.w3.org/2000/svg">
<g clip-path="url(#clip0_8758_36904)">
<path d="M16.9931 4.89009C16.424 5.14282 15.8127 5.31289 15.171 5.3896C15.8264 4.99713 16.3289 4.3757 16.5655 3.63475C15.953 3.99809 15.2739 4.26212 14.5508 4.40484C13.9722 3.78817 13.148 3.40283 12.2358 3.40283C10.4839 3.40283 9.06385 4.82348 9.06385 6.57477C9.06385 6.82334 9.0924 7.06596 9.14592 7.29728C6.50977 7.16527 4.17275 5.9022 2.60759 3.98263C2.33524 4.45122 2.17884 4.99594 2.17884 5.57811C2.17884 6.67824 2.73842 7.64932 3.58938 8.21782C3.06964 8.20117 2.58024 8.05845 2.15267 7.82118C2.15267 7.83486 2.15267 7.84735 2.15267 7.86102C2.15267 9.39823 3.24566 10.6803 4.69724 10.9711C4.43142 11.0437 4.15074 11.0823 3.86114 11.0823C3.65717 11.0823 3.45796 11.0621 3.26469 11.0258C3.66847 12.2859 4.83996 13.2035 6.2279 13.2291C5.14264 14.08 3.77492 14.5873 2.28826 14.5873C2.03255 14.5873 1.77982 14.5724 1.53125 14.5427C2.93525 15.4424 4.60209 15.9675 6.39381 15.9675C12.2287 15.9675 15.4184 11.1341 15.4184 6.94227C15.4184 6.8049 15.4155 6.66813 15.4095 6.53195C16.0297 6.08417 16.5679 5.52578 16.9931 4.89009Z" fill="#A2A8B4"/>
</g>
<defs>
<clipPath id="clip0_8758_36904">
<rect width="16.8675" height="16.8675" fill="white" transform="translate(0.828125 0.987915)"/>
</clipPath>
</defs>
</svg>
