<svg width="18" height="18" viewBox="0 0 18 18" fill="none" xmlns="http://www.w3.org/2000/svg">
<g clip-path="url(#clip0_8758_36906)">
<path d="M14.8125 5.10162C13.7486 4.25051 12.4719 3.82495 11.1243 3.75403L10.9115 3.96681C12.1173 4.25051 13.1812 4.81792 14.1741 5.5981C12.9684 4.95977 11.6208 4.53421 10.2023 4.39236C9.77673 4.32144 9.4221 4.32144 8.99655 4.32144C8.57099 4.32144 8.21636 4.32144 7.79081 4.39236C6.37229 4.53421 5.0247 4.95977 3.81896 5.5981C4.81192 4.81792 5.87581 4.25051 7.08155 3.96681L6.86877 3.75403C5.52118 3.82495 4.24451 4.25051 3.18062 5.10162C1.97488 7.37125 1.33655 9.92458 1.26562 12.5488C2.32951 13.6837 3.81896 14.3929 5.37933 14.3929C5.37933 14.3929 5.87581 13.8255 6.23044 13.329C5.3084 13.1162 4.45729 12.6198 3.88988 11.8396C4.38636 12.1233 4.88285 12.407 5.37933 12.6198C6.01766 12.9035 6.65599 13.0453 7.29433 13.1872C7.86173 13.2581 8.42914 13.329 8.99655 13.329C9.56396 13.329 10.1314 13.2581 10.6988 13.1872C11.3371 13.0453 11.9754 12.9035 12.6138 12.6198C13.1103 12.407 13.6067 12.1233 14.1032 11.8396C13.5358 12.6198 12.6847 13.1162 11.7627 13.329C12.1173 13.8255 12.6138 14.3929 12.6138 14.3929C14.1741 14.3929 15.6636 13.6837 16.7275 12.5488C16.6565 9.92458 16.0182 7.37125 14.8125 5.10162ZM6.65599 11.2722C5.94673 11.2722 5.3084 10.6338 5.3084 9.85366C5.3084 9.07347 5.94673 8.43514 6.65599 8.43514C7.36525 8.43514 8.00359 9.07347 8.00359 9.85366C8.00359 10.6338 7.36525 11.2722 6.65599 11.2722ZM11.3371 11.2722C10.6278 11.2722 9.98951 10.6338 9.98951 9.85366C9.98951 9.07347 10.6278 8.43514 11.3371 8.43514C12.0464 8.43514 12.6847 9.07347 12.6847 9.85366C12.6847 10.6338 12.0464 11.2722 11.3371 11.2722Z" fill="#A2A8B4"/>
</g>
<defs>
<clipPath id="clip0_8758_36906">
<rect width="16.8675" height="16.8675" fill="white" transform="translate(0.5625 0.987915)"/>
</clipPath>
</defs>
</svg>
