<svg width="18" height="18" viewBox="0 0 18 18" fill="none" xmlns="http://www.w3.org/2000/svg">
<path id="Shape" fill-rule="evenodd" clip-rule="evenodd" d="M8.98852 0.801208C9.4543 0.801208 9.83189 1.1788 9.83189 1.64458V8.18073H16.368C16.8338 8.18073 17.2114 8.55832 17.2114 9.0241C17.2114 9.48988 16.8338 9.86747 16.368 9.86747H9.83189V16.4036C9.83189 16.8694 9.4543 17.247 8.98852 17.247C8.52273 17.247 8.14514 16.8694 8.14514 16.4036V9.86747H1.609C1.14322 9.86747 0.765625 9.48988 0.765625 9.0241C0.765625 8.55832 1.14322 8.18073 1.609 8.18073H8.14514V1.64458C8.14514 1.1788 8.52273 0.801208 8.98852 0.801208Z" fill="#A2A8B4"/>
</svg>
