<svg width="18" height="18" viewBox="0 0 18 18" fill="none" xmlns="http://www.w3.org/2000/svg">
<path fill-rule="evenodd" clip-rule="evenodd" d="M12.0217 15.3875C12.8639 15.7559 13.1797 14.984 13.1797 14.984L15.4078 3.79076C15.3902 3.03635 14.3727 3.4925 14.3727 3.4925L1.89872 8.38735C1.89872 8.38735 1.30222 8.59788 1.35485 8.96631C1.40748 9.33474 1.88118 9.51018 1.88118 9.51018L5.0216 10.5628C5.0216 10.5628 5.96899 13.6682 6.16197 14.2647C6.33742 14.8436 6.49531 14.8612 6.49531 14.8612C6.67076 14.9313 6.82865 14.8085 6.82865 14.8085L8.86379 12.9664L12.0217 15.3875ZM12.5657 5.77355C12.5657 5.77355 13.0044 5.51039 12.9868 5.77355C12.9868 5.77355 13.057 5.80864 12.8289 6.05426C12.6184 6.26479 7.65336 10.721 6.98668 11.3175C6.93405 11.3526 6.89896 11.4053 6.89896 11.4754L6.70597 13.1246C6.67088 13.3 6.44281 13.3176 6.39017 13.1597L5.5656 10.4579C5.53051 10.3526 5.5656 10.2298 5.67086 10.1596L12.5657 5.77355Z" fill="#A2A8B4"/>
</svg>
